<svg version="1.1" preserveAspectRatio="none" xmlns="http://www.w3.org/2000/svg" width="500" height="500" viewBox="0 0 500 500"><rect width="100%" height="100%" fill="#121212" fill-opacity="1"/><svg viewBox="801.7543 1018.2716 110.2092 226.1154" width="162.3050159343415" height="333" x="168.8475px" y="83.5px" xmlns="http://www.w3.org/2000/svg" xmlns:xlink="http://www.w3.org/1999/xlink" preserveAspectRatio="none"><defs></defs><style>.companyName {fill:#E3E3E3;fill-opacity:1;}.icon1 {fill:#F1EC40;fill-opacity:1;}.icon2 {fill:#555555;fill-opacity:1;}.icon3 {fill:#AAAAAA;fill-opacity:1;}.icon3-str {stroke:#AAAAAA;stroke-opacity:1;}</style><g opacity="1" transform="rotate(0 801.7543 1124.387)">
<svg width="110.2092" height="120" x="801.7543" y="1124.387" version="1.1" preserveAspectRatio="none" viewBox="0.7813 -28.0078 25.7227 28.0078">
  <g transform="matrix(1 0 0 1 0 0)" class="companyName"><path id="id-D6z1nYkh1" d="M26.50-28.01L26.50-7.13Q26.50-5.61 25.98-4.30Q25.45-2.99 24.50-2.03Q23.55-1.07 22.25-0.54Q20.94 0 19.39 0L19.39 0L0.78 0L0.78-5.08L19.39-5.08Q20.33-5.08 20.86-5.62Q21.39-6.15 21.39-7.13L21.39-7.13L21.39-28.01L26.50-28.01Z"/></g>
</svg>
</g><g opacity="1" transform="rotate(0 801.7543 1018.2716)">
<svg width="110.2092" height="76.1154" x="801.7543" y="1018.2716" version="1.1" preserveAspectRatio="none" viewBox="31.303985595703125 54.01099395751953 137.3920135498047 94.88899993896484">
  <g transform="matrix(1 0 0 1 0 0)"><g><path data-color="1" d="M114.778 106.956a36.062 36.062 0 0 1-.997 4.52H77.63v11h30.863c-6.608 9.323-17.474 15.425-29.745 15.425-20.096 0-36.444-16.349-36.444-36.444s16.349-36.444 36.444-36.444c18.226 0 33.37 13.449 36.03 30.944h11.086c-2.736-23.578-22.816-41.944-47.116-41.944-26.161 0-47.444 21.283-47.444 47.444S52.587 148.9 78.748 148.9c24.3 0 44.38-18.366 47.116-41.944h-11.086z" class="icon1"></path><path data-color="2" d="M121.252 54.011v11c20.096 0 36.444 16.349 36.444 36.444S141.348 137.9 121.252 137.9v11c26.161 0 47.444-21.283 47.444-47.444s-21.283-47.445-47.444-47.445z" class="icon2"></path><path data-color="2" d="M77.63 95.956v11h63.475v-11H77.63z" class="icon2"></path></g></g>
</svg>
</g></svg></svg>